<svg width="209" height="55" viewBox="0 0 209 55" fill="none" xmlns="http://www.w3.org/2000/svg">
<path d="M2.5956 42V13.16L5.6444 12.4596V23.7896C7.26493 21.8944 9.4348 20.9468 12.154 20.9468C13.7196 20.9468 15.0929 21.2901 16.274 21.9768C17.4825 22.636 18.4164 23.5699 19.0756 24.7784C19.7623 25.9595 20.1056 27.3465 20.1056 28.9396V42H17.098V29.5576C17.098 27.7173 16.5761 26.2753 15.5324 25.2316C14.5161 24.1604 13.1153 23.6248 11.33 23.6248C10.094 23.6248 8.99533 23.8995 8.034 24.4488C7.07267 24.9981 6.27613 25.7809 5.6444 26.7972V42H2.5956ZM31.7169 42.3708C30.2063 42.3708 28.8741 42.1099 27.7205 41.588C26.5944 41.0661 25.7017 40.3383 25.0425 39.4044C24.4108 38.4705 24.0949 37.3856 24.0949 36.1496C24.0949 34.1995 24.8365 32.6613 26.3197 31.5352C27.8029 30.4091 29.808 29.846 32.3349 29.846C34.5597 29.846 36.5785 30.3129 38.3913 31.2468V28.5276C38.3913 26.8796 37.9244 25.6436 36.9905 24.8196C36.0567 23.9681 34.6971 23.5424 32.9117 23.5424C31.8955 23.5424 30.8655 23.6935 29.8217 23.9956C28.8055 24.2703 27.6793 24.7235 26.4433 25.3552L25.2897 23.0068C26.7729 22.2927 28.1463 21.7708 29.4097 21.4412C30.6732 21.1116 31.9367 20.9468 33.2001 20.9468C35.8095 20.9468 37.8145 21.5648 39.2153 22.8008C40.6436 24.0368 41.3577 25.8084 41.3577 28.1156V42H38.3913V39.9812C37.4575 40.7777 36.4275 41.382 35.3013 41.794C34.2027 42.1785 33.0079 42.3708 31.7169 42.3708ZM27.0201 36.0672C27.0201 37.2208 27.5008 38.1684 28.4621 38.91C29.4509 39.6241 30.7144 39.9812 32.2525 39.9812C33.4885 39.9812 34.6147 39.7889 35.6309 39.4044C36.6472 39.0199 37.5673 38.4156 38.3913 37.5916V33.7188C37.5399 33.142 36.6335 32.73 35.6721 32.4828C34.7108 32.2081 33.6259 32.0708 32.4173 32.0708C30.7693 32.0708 29.4509 32.4416 28.4621 33.1832C27.5008 33.8973 27.0201 34.8587 27.0201 36.0672ZM53.964 42.412C52.1786 42.412 50.8053 41.9863 49.844 41.1348C48.8826 40.2833 48.402 39.0473 48.402 37.4268V23.9544H43.9524V21.3588H48.402V16.1264L51.4096 15.3436V21.3588H57.6308V23.9544H51.4096V36.644C51.4096 37.7427 51.6568 38.5392 52.1512 39.0336C52.6456 39.5005 53.4558 39.734 54.582 39.734C55.1588 39.734 55.6669 39.6928 56.1064 39.6104C56.5733 39.528 57.0677 39.3907 57.5896 39.1984V41.8764C57.0677 42.0687 56.4772 42.206 55.818 42.2884C55.1862 42.3708 54.5682 42.412 53.964 42.412ZM70.1749 42.3708C68.1973 42.3708 66.3982 41.9039 64.7777 40.97C63.1846 40.0087 61.9074 38.7177 60.9461 37.0972C60.0122 35.4767 59.5453 33.6639 59.5453 31.6588C59.5453 29.6812 59.9985 27.8959 60.9049 26.3028C61.8113 24.6823 63.0335 23.4051 64.5717 22.4712C66.1098 21.5099 67.8265 21.0292 69.7217 21.0292C71.5619 21.0292 73.2099 21.5099 74.6657 22.4712C76.1489 23.4051 77.3162 24.6823 78.1677 26.3028C79.0466 27.8959 79.4861 29.6812 79.4861 31.6588V32.6064H62.5529C62.7177 33.9523 63.1434 35.1608 63.8301 36.232C64.5442 37.3032 65.4643 38.1547 66.5905 38.7864C67.7166 39.3907 68.9526 39.6928 70.2985 39.6928C71.3697 39.6928 72.4134 39.528 73.4297 39.1984C74.4459 38.8688 75.2974 38.4019 75.9841 37.7976L77.8793 39.8164C76.7257 40.6679 75.5171 41.3133 74.2537 41.7528C73.0177 42.1648 71.6581 42.3708 70.1749 42.3708ZM62.6353 30.1756H76.4373C76.2725 28.9396 75.8605 27.8409 75.2013 26.8796C74.5695 25.8908 73.773 25.1217 72.8117 24.5724C71.8503 23.9956 70.7929 23.7072 69.6393 23.7072C68.4582 23.7072 67.3733 23.9819 66.3845 24.5312C65.3957 25.0805 64.5717 25.8496 63.9125 26.8384C63.2533 27.7997 62.8275 28.9121 62.6353 30.1756ZM93.3479 42.412C91.3978 42.412 89.6125 41.9451 87.9919 41.0112C86.3989 40.0499 85.1354 38.7589 84.2015 37.1384C83.2677 35.5179 82.8007 33.7051 82.8007 31.7C82.8007 29.6949 83.2677 27.8821 84.2015 26.2616C85.1354 24.6411 86.3989 23.3639 87.9919 22.43C89.6125 21.4687 91.3978 20.988 93.3479 20.988C95.3255 20.988 97.1109 21.4687 98.7039 22.43C100.297 23.3639 101.56 24.6411 102.494 26.2616C103.428 27.8821 103.895 29.6949 103.895 31.7C103.895 33.7051 103.428 35.5179 102.494 37.1384C101.56 38.7589 100.297 40.0499 98.7039 41.0112C97.1109 41.9451 95.3255 42.412 93.3479 42.412ZM93.3479 39.6928C94.7487 39.6928 96.0122 39.3357 97.1383 38.6216C98.2919 37.9075 99.1983 36.9461 99.8575 35.7376C100.544 34.5291 100.888 33.1832 100.888 31.7C100.888 30.1893 100.544 28.8435 99.8575 27.6624C99.1983 26.4539 98.2919 25.4925 97.1383 24.7784C96.0122 24.0643 94.7487 23.7072 93.3479 23.7072C91.9471 23.7072 90.6699 24.0643 89.5163 24.7784C88.3902 25.4925 87.4838 26.4539 86.7971 27.6624C86.1379 28.8435 85.8083 30.1893 85.8083 31.7C85.8083 33.1832 86.1379 34.5291 86.7971 35.7376C87.4838 36.9461 88.3902 37.9075 89.5163 38.6216C90.6699 39.3357 91.9471 39.6928 93.3479 39.6928ZM108.707 42L112.415 24.49H107.718L108.419 21.0292H113.198L113.94 17.4036C114.379 15.3711 115.244 13.8192 116.535 12.748C117.854 11.6493 119.529 11.1 121.562 11.1C122.166 11.1 122.784 11.1549 123.416 11.2648C124.047 11.3472 124.583 11.4845 125.022 11.6768L124.322 15.22C123.883 15.0552 123.443 14.9316 123.004 14.8492C122.564 14.7668 122.07 14.7256 121.52 14.7256C120.477 14.7256 119.666 14.9728 119.09 15.4672C118.513 15.9341 118.115 16.6895 117.895 17.7332L117.236 21.0292H123.086L122.303 24.49H116.453L112.745 42H108.707ZM121.754 42L127.893 13.16L132.095 12.2536L125.792 42H121.754ZM138.969 42.3708C137.294 42.3708 135.879 41.9863 134.726 41.2172C133.599 40.4481 132.803 39.4044 132.336 38.086C131.897 36.7676 131.842 35.2707 132.171 33.5952L134.849 21.0292H138.887L136.291 33.1832C135.934 34.8861 136.14 36.2595 136.909 37.3032C137.706 38.3195 138.901 38.8276 140.494 38.8276C141.537 38.8276 142.512 38.6079 143.419 38.1684C144.325 37.7289 145.135 37.0972 145.85 36.2732L149.063 21.0292H153.101L148.651 42H144.614L145.026 40.146C143.213 41.6292 141.194 42.3708 138.969 42.3708ZM151.068 42L161.492 31.1232L156.095 21.0292H160.627L164.376 28.2392L171.174 21.0292H175.994L166.065 31.288L171.792 42H167.301L163.263 34.2544L155.889 42H151.068Z" fill="black"/>
<line x1="179" y1="23" x2="209" y2="23" stroke="black" stroke-width="4"/>
<line x1="179" y1="31.5" x2="203" y2="31.5" stroke="black" stroke-width="4"/>
<line x1="179" y1="40" x2="197" y2="40" stroke="black" stroke-width="4"/>
</svg>
